<svg xmlns="http://www.w3.org/2000/svg" version="1.1" xmlns:xlink="http://www.w3.org/1999/xlink" xmlns:svgjs="http://svgjs.dev/svgjs" width="100%" height="100%" viewBox="0 0 1000 600"><rect width="1000" height="600" x="0" y="0" fill="#fff748"/><g><rect width="333.3333333333333" height="333.3333333333333" rx="13.333333333333334" ry="13.333333333333334" y="230.76907651371656" fill="#3c1a5b" transform="matrix(0.5993856663131251,0,0,0.5993856663131251,0,61.7827130076146)" x="208.5467987060547"/><path d="M345.84015337254556 322.43573362746156L361.0919639708825 322.43573362746156L361.0919639708825 470.3754349284027L345.84015337254556 470.3754349284027L345.84015337254556 463.3647527584355Q329.9874271596401 472.43571703549514 314.535311356447 472.43571703549514L314.535311356447 472.43571703549514Q306.29418292807736 472.43571703549514 300.11333660680015 470.3754349284027Q293.93249028552293 468.31515282131033 288.58147981293564 462.96414234872304L288.58147981293564 462.96414234872304Q277.45023342878363 451.832895964571 277.45023342878363 421.8443452946704Q277.45023342878363 391.8844096540349 287.4368786423288 378.5784210457298Q297.42352385587395 365.3010474666898 320.515852472868 365.3010474666898L320.515852472868 365.3010474666898Q332.44831967644495 365.3010474666898 345.84015337254556 367.990860217616L345.84015337254556 367.990860217616L345.84015337254556 322.43573362746156ZM300.51394701651253 451.832895964571Q303.8332904112725 455.75315497389965 307.5246291864798 457.18390643715827Q311.24458299095215 458.64327292968204 317.11066399031256 458.64327292968204Q322.97674498967285 458.64327292968204 330.302192481557 456.66883591038516Q337.59902494417594 454.7230139203534 341.71958915836075 452.8630370181172L341.71958915836075 452.8630370181172L345.84015337254556 451.00306011588106L345.84015337254556 381.15377367959525Q332.6772399105663 378.69288116279046 321.34568832155804 378.69288116279046L321.34568832155804 378.69288116279046Q305.6646522842436 378.69288116279046 299.48380596296636 388.6795263763356Q293.3029596416891 398.6661715898808 293.3029596416891 419.6982180997825L293.3029596416891 419.6982180997825Q293.3029596416891 443.59176753620136 300.51394701651253 451.832895964571L300.51394701651253 451.832895964571ZM406.4181703269155 385.2743378937801L406.4181703269155 470.3754349284027L390.9660545237224 470.3754349284027L390.9660545237224 322.43573362746156L406.4181703269155 322.43573362746156L406.4181703269155 373.14156548534703Q422.90042718365476 365.3010474666898 438.15223778199163 365.3010474666898L438.15223778199163 365.3010474666898Q458.75505885291574 365.3010474666898 465.8515861106785 376.43229385084186Q472.97672839770644 387.56354023499387 472.97672839770644 415.97826429531005L472.97672839770644 415.97826429531005L472.97672839770644 470.3754349284027L457.5246125945133 470.3754349284027L457.5246125945133 416.40748973428765Q457.5246125945133 394.9748328146735 453.28958826326783 387.04846970822075Q449.0831789612875 379.09349157250284 435.46242503106544 379.09349157250284L435.46242503106544 379.09349157250284Q422.49981677394237 379.09349157250284 410.3384293362441 383.8435864305215L410.3384293362441 383.8435864305215L406.4181703269155 385.2743378937801Z " fill="#fff748" transform="matrix(0.5993856663131251,0,0,0.5993856663131251,0,61.7827130076146)"/><path d="M676.0909999073265 470.3754349284027L676.0909999073265 470.3754349284027L625.21347787385 470.3754349284027L625.21347787385 327.81535912931395L676.0909999073265 327.81535912931395Q710.9154905230413 327.81535912931395 722.2470421120496 355.40024734094015L722.2470421120496 355.40024734094015Q728.8571138723044 371.2815885831108 728.8571138723044 397.03511492176597L728.8571138723044 397.03511492176597Q728.8571138723044 450.8027549110248 702.073446480103 464.82411925095926L702.073446480103 464.82411925095926Q691.3428105056635 470.3754349284027 676.0909999073265 470.3754349284027ZM712.5751622204214 397.03511492176597L712.5751622204214 397.03511492176597Q712.5751622204214 356.02977798477394 694.2329284614458 345.92867265416805L694.2329284614458 345.92867265416805Q686.8216358817662 341.80810843998324 676.0909999073265 341.80810843998324L676.0909999073265 341.80810843998324L641.0662040867555 341.80810843998324L641.0662040867555 456.3540705884683L676.0909999073265 456.3540705884683Q712.5751622204214 456.3540705884683 712.5751622204214 397.03511492176597ZM828.1512654224525 398.4658663850246L828.1512654224525 398.4658663850246L828.1512654224525 451.20336532073725Q828.7807960662863 458.84357813453823 840.1123476552946 460.27432959779685L840.1123476552946 460.27432959779685L839.4828170114607 472.43571703549514Q823.2008653595777 472.43571703549514 814.959736931208 464.1945886071255L814.959736931208 464.1945886071255Q796.4171979673763 472.43571703549514 777.8746590035446 472.43571703549514L777.8746590035446 472.43571703549514Q763.652989458754 472.43571703549514 756.2416968790743 464.39489381198166Q748.8304042993947 456.3540705884683 748.8304042993947 441.33118022425276Q748.8304042993947 426.27967483077214 756.4420020839306 419.18314757300936Q764.0822148977315 412.05800528598144 780.3641665496147 410.4269486178666L780.3641665496147 410.4269486178666L812.6991496192594 407.336525457228L812.6991496192594 398.4658663850246Q812.6991496192594 387.9641506447063 808.1779749953622 383.44297602080906Q803.6281853421998 378.89318636764665 795.8162823528078 378.89318636764665L795.8162823528078 378.89318636764665Q779.3340254960684 378.89318636764665 761.5927073516616 380.95346847473905L761.5927073516616 380.95346847473905L755.2115558255281 381.58299911857284L754.6106402109594 369.822222090587Q777.2737433889761 365.3010474666898 794.7861412992615 365.3010474666898Q812.298539209547 365.3010474666898 820.2249023159998 373.3418706902032Q828.1512654224525 381.38269391371665 828.1512654224525 398.4658663850246ZM764.6831305123002 440.5013443755628L764.6831305123002 440.5013443755628Q764.6831305123002 459.44449374910687 780.3641665496147 459.44449374910687L780.3641665496147 459.44449374910687Q794.356915860284 459.44449374910687 807.9490547612409 454.7230139203534L807.9490547612409 454.7230139203534L812.6991496192594 453.06334222297346L812.6991496192594 419.06868745594863L782.1955284225857 421.9588054117311Q772.9242589406698 422.78864126042106 768.803694726485 427.3098158843183Q764.6831305123002 431.8596055374807 764.6831305123002 440.5013443755628ZM874.1070024223193 386.7337043863039L874.1070024223193 470.3754349284027L858.6548866191263 470.3754349284027L858.6548866191263 367.3613295737822L873.8780821881979 367.3613295737822L873.8780821881979 374.57231694860565Q890.5892592790586 365.3010474666898 905.8124548481303 365.3010474666898L905.8124548481303 365.3010474666898Q926.4152759190545 365.3010474666898 933.5404182060824 376.43229385084186Q940.636945463845 387.56354023499387 940.636945463845 415.97826429531005L940.636945463845 415.97826429531005L940.636945463845 470.3754349284027L925.3851348655082 470.3754349284027L925.3851348655082 416.40748973428765Q925.3851348655082 394.9748328146735 921.1787255635279 387.04846970822075Q916.9437012322824 379.09349157250284 903.1512571264693 379.09349157250284L903.1512571264693 379.09349157250284Q896.5411853662144 379.09349157250284 889.2443529035955 381.0679285917997Q881.9189054117114 383.01375058183146 877.9986464023827 384.8737274840677L877.9986464023827 384.8737274840677L874.1070024223193 386.7337043863039ZM984.7327055614757 470.3754349284027L969.2805897582825 470.3754349284027L969.2805897582825 367.3613295737822L984.7327055614757 367.3613295737822L984.7327055614757 470.3754349284027ZM984.7327055614757 344.06869575193184L969.2805897582825 344.06869575193184L969.2805897582825 326.155687431934L984.7327055614757 326.155687431934L984.7327055614757 344.06869575193184ZM1084.4560825506014 457.61313187613587L1084.4560825506014 457.61313187613587L1090.4366236670223 456.983601232302L1090.8372340767348 469.1449886700003Q1067.3442950500284 472.43571703549514 1050.661732988433 472.43571703549514L1050.661732988433 472.43571703549514Q1028.3992402201288 472.43571703549514 1019.127970738213 459.5589538661676Q1009.856701256297 446.68219069684 1009.856701256297 419.49791289492623L1009.856701256297 419.49791289492623Q1009.856701256297 365.3010474666898 1052.9223203003814 365.3010474666898L1052.9223203003814 365.3010474666898Q1073.7254465761619 365.3010474666898 1084.026857111624 376.9473643776149Q1094.3282676470858 388.5936812885401 1094.3282676470858 413.5173717785052L1094.3282676470858 413.5173717785052L1093.527046827661 425.2495337772259L1025.5377372936116 425.2495337772259Q1025.5377372936116 442.361321277799 1031.7185836148888 450.6024497061686Q1037.899429936166 458.84357813453823 1053.2370856222983 458.84357813453823Q1068.5747413084307 458.84357813453823 1084.4560825506014 457.61313187613587ZM1025.3088170594901 412.8878411346714L1078.8761518438928 412.8878411346714Q1078.8761518438928 393.94469176112733 1072.8097656396762 386.1041737424701Q1066.7433794354597 378.292270753078 1053.036780417442 378.292270753078Q1039.3301813994246 378.292270753078 1032.4339593465181 386.5333991814477Q1025.5377372936116 394.7745276098173 1025.3088170594901 412.8878411346714L1025.3088170594901 412.8878411346714ZM1135.1332993792216 470.3754349284027L1119.6811835760286 470.3754349284027L1119.6811835760286 322.43573362746156L1135.1332993792216 322.43573362746156L1135.1332993792216 470.3754349284027ZM1318.0977965007337 470.3754349284027L1302.4167604634195 470.3754349284027L1302.4167604634195 405.8771589647042L1229.9062763054726 405.8771589647042L1229.9062763054726 470.3754349284027L1214.053550092567 470.3754349284027L1214.053550092567 327.81535912931395L1229.9062763054726 327.81535912931395L1229.9062763054726 391.6841044491787L1302.4167604634195 391.6841044491787L1302.4167604634195 327.81535912931395L1318.0977965007337 327.81535912931395L1318.0977965007337 470.3754349284027ZM1365.8848953735717 470.3754349284027L1350.4327795703787 470.3754349284027L1350.4327795703787 367.3613295737822L1365.8848953735717 367.3613295737822L1365.8848953735717 470.3754349284027ZM1365.8848953735717 344.06869575193184L1350.4327795703787 344.06869575193184L1350.4327795703787 326.155687431934L1365.8848953735717 326.155687431934L1365.8848953735717 344.06869575193184ZM1412.241242783151 470.3754349284027L1396.789126979958 470.3754349284027L1396.789126979958 322.43573362746156L1412.241242783151 322.43573362746156L1412.241242783151 470.3754349284027ZM1459.8280364511324 470.3754349284027L1444.3759206479394 470.3754349284027L1444.3759206479394 322.43573362746156L1459.8280364511324 322.43573362746156L1459.8280364511324 470.3754349284027Z " fill="#3c1a5b" transform="matrix(0.5993856663131251,0,0,0.5993856663131251,0,61.7827130076146)"/></g></svg>